<svg xmlns="http://www.w3.org/2000/svg" xmlns:xlink="http://www.w3.org/1999/xlink" width="18" height="18" viewBox="0 0 18 18"><defs><clipPath id="a"><rect width="18" height="18" fill="none"/></clipPath></defs><g clip-path="url(#a)"><g fill="#fff"><path d="M 8.999968528747559 17.25 C 4.450918674468994 17.25 0.7499985098838806 13.54907035827637 0.7499985098838806 9 C 0.7499985098838806 4.450930118560791 4.450918674468994 0.75 8.999968528747559 0.75 C 13.54901885986328 0.75 17.24993896484375 4.450930118560791 17.24993896484375 9 C 17.24993896484375 13.54907035827637 13.54901885986328 17.25 8.999968528747559 17.25 Z" stroke="none"/><path d="M 8.999968528747559 1.5 C 4.864468574523926 1.5 1.499998092651367 4.864489555358887 1.499998092651367 9 C 1.499998092651367 13.1355094909668 4.864468574523926 16.5 8.999968528747559 16.5 C 13.13546848297119 16.5 16.49993896484375 13.1355094909668 16.49993896484375 9 C 16.49993896484375 4.864489555358887 13.13546848297119 1.5 8.999968528747559 1.5 M 8.999968528747559 0 C 13.97051811218262 0 17.99993896484375 4.029439926147461 17.99993896484375 9 C 17.99993896484375 13.97056007385254 13.97051811218262 18 8.999968528747559 18 C 4.0294189453125 18 -1.9073486328125e-06 13.97056007385254 -1.9073486328125e-06 9 C -1.9073486328125e-06 4.029439926147461 4.0294189453125 0 8.999968528747559 0 Z" stroke="none" fill="#ff8080"/></g><g transform="translate(6 6)"><line x2="5.8" y2="5.8" fill="none" stroke="#ff8080" stroke-width="1.5"/><line x1="5.8" y2="5.8" fill="none" stroke="#ff8080" stroke-width="1.5"/></g></g></svg>